<svg version="1.1" xmlns="http://www.w3.org/2000/svg" viewBox="0 0 749.687362973812 339.69845357120084" width="1499.374725947624" height="679.3969071424017">
  <!-- svg-source:excalidraw -->

  <defs>
    <style class="style-fonts">
      @font-face {
        font-family: "Virgil";
        src: url("https://excalidraw.com/Virgil.woff2");
      }
      @font-face {
        font-family: "Cascadia";
        src: url("https://excalidraw.com/Cascadia.woff2");
      }
      @font-face {
        font-family: "Assistant";
        src: url("https://excalidraw.com/Assistant-Regular.woff2");
      }
    </style>

  </defs>
  <rect x="0" y="0" width="749.687362973812" height="339.69845357120084" fill="#f5faff"></rect><g stroke-linecap="round"><g transform="translate(19.088261182432234 261.0745833739593) rotate(0 359.54581316161807 0.3023479068947381)"><path d="M-1.04 -1.03 C119.14 -1.02, 600.23 1.23, 720.6 1.55 M3.59 -4.06 C123.59 -5.06, 599.69 -4.32, 719.18 -2.94" stroke="#1e1e1e" stroke-width="2" fill="none"></path></g></g><mask></mask><g stroke-linecap="round"><g transform="translate(363.9137926680769 259.5447932181796) rotate(0 0.9589392569416759 -123.52265793243032)"><path d="M2.79 -0.95 C3.3 -42.82, 1.5 -208.76, 1.31 -249.54 M0.85 -3.93 C1.1 -45.7, -1.06 -206.19, -1.25 -247.27" stroke="#1e1e1e" stroke-width="2" fill="none"></path></g></g><mask></mask><g transform="translate(343.3942984534938 230.253683851598) rotate(0 19.689532121702996 49.72238485980142)"><text x="0" y="69.69089461949766" font-family="Virgil, Segoe UI Emoji" font-size="79.55581577568225px" fill="#1e1e1e" text-anchor="start" style="white-space: pre;" direction="ltr" dominant-baseline="alphabetic">µ</text></g><g transform="translate(243.3446676470271 122.87567173279785) rotate(0 10.934550603903745 24.320626127126616)"><text x="0" y="34.087789579780974" font-family="Virgil, Segoe UI Emoji" font-size="38.913001803402935px" fill="#1e1e1e" text-anchor="start" style="white-space: pre;" direction="ltr" dominant-baseline="alphabetic">x</text></g><g stroke-linecap="round"><g transform="translate(245.30619045939875 129.38879990657097) rotate(0 12.387822430275946 0)"><path d="M1.18 -0.04 C5.18 -0.16, 20.61 0.2, 24.55 0.38 M0.34 -1.1 C4.12 -1.09, 19.52 -1.61, 23.48 -1.54" stroke="#1e1e1e" stroke-width="2" fill="none"></path></g></g><mask></mask><g transform="translate(415.96096548632704 85.75051756974608) rotate(0 10.100103784393696 22.464649612369158)"><text x="0" y="31.48645289669676" font-family="Virgil, Segoe UI Emoji" font-size="35.943439379790824px" fill="#1e1e1e" text-anchor="start" style="white-space: pre;" direction="ltr" dominant-baseline="alphabetic">x</text></g><g stroke-linecap="round"><g transform="translate(417.7727988847055 91.76661031092135) rotate(0 11.442472282652261 0)"><path d="M-0.85 1.17 C2.88 1.47, 18.66 1.16, 22.55 1.12 M0.9 0.74 C4.43 0.79, 17.99 -0.14, 21.42 -0.41" stroke="#1e1e1e" stroke-width="2" fill="none"></path></g></g><mask></mask><g transform="translate(318.6001992114493 38.17976757510041) rotate(0 10.100103784393696 22.464649612369158)"><text x="0" y="31.48645289669676" font-family="Virgil, Segoe UI Emoji" font-size="35.943439379790824px" fill="#1e1e1e" text-anchor="start" style="white-space: pre;" direction="ltr" dominant-baseline="alphabetic">x</text></g><g stroke-linecap="round"><g transform="translate(320.41203260982775 44.195860316274775) rotate(0 11.442472282652261 0)"><path d="M0.73 0.8 C4.57 0.79, 19.4 -0.94, 23.22 -0.93 M-0.35 0.18 C3.35 0.37, 18.51 0.31, 22.45 0.12" stroke="#1e1e1e" stroke-width="2" fill="none"></path></g></g><mask></mask><g transform="translate(385.40183876375886 178.35964806146876) rotate(0 10.100103784393696 22.464649612369158)"><text x="0" y="31.48645289669676" font-family="Virgil, Segoe UI Emoji" font-size="35.943439379790824px" fill="#1e1e1e" text-anchor="start" style="white-space: pre;" direction="ltr" dominant-baseline="alphabetic">x</text></g><g stroke-linecap="round"><g transform="translate(387.2136721621373 184.37574080264312) rotate(0 11.442472282652261 0)"><path d="M0.37 1.06 C4.18 1.27, 18.44 0.61, 22.01 0.59 M-0.89 0.57 C3.36 0.49, 20.09 -0.97, 24.26 -1.22" stroke="#1e1e1e" stroke-width="2" fill="none"></path></g></g><mask></mask><g transform="translate(259.11219395435864 182.29049026665143) rotate(0 10.100103784393696 22.464649612369158)"><text x="0" y="31.48645289669676" font-family="Virgil, Segoe UI Emoji" font-size="35.943439379790824px" fill="#1e1e1e" text-anchor="start" style="white-space: pre;" direction="ltr" dominant-baseline="alphabetic">x</text></g><g stroke-linecap="round"><g transform="translate(260.9240273527371 188.3065830078276) rotate(0 11.442472282652261 0)"><path d="M-0.25 0.47 C3.39 0.52, 18.04 0.88, 21.93 0.77 M1.83 -0.33 C5.82 -0.65, 20.71 -1.17, 24.13 -0.95" stroke="#1e1e1e" stroke-width="2" fill="none"></path></g></g><mask></mask><g stroke-linecap="round"><g transform="translate(349.4432716490128 63.22592221260311) rotate(0 7.863574238348974 -0.2948131653888595)"><path d="M-0.91 -0.81 C1.58 -0.88, 12.99 0.14, 15.77 0.29" stroke="#1e1e1e" stroke-width="1.5" fill="none" stroke-dasharray="1.5 7"></path></g></g><mask></mask><g stroke-linecap="round"><g transform="translate(259.3531724090685 152.36654144532167) rotate(0 52.50887051490713 -2.445437410339764)"><path d="M-1.74 -2.18 C16.26 -2.3, 88.28 -2.51, 105.89 -2.92" stroke="#1e1e1e" stroke-width="1.5" fill="none" stroke-dasharray="1.5 7"></path></g></g><mask></mask><g stroke-linecap="round"><g transform="translate(274.64955342264284 206.84959997254646) rotate(0 43.18634907348064 0.0018898279831773834)"><path d="M-1.16 -1.58 C13.09 -1.9, 72.45 -1.22, 86.94 -1.19" stroke="#1e1e1e" stroke-width="1.5" fill="none" stroke-dasharray="1.5 7"></path></g></g><mask></mask><g stroke-linecap="round"><g transform="translate(370.5658828850728 111.70809998325512) rotate(0 27.73700531032182 0.034016903698557144)"><path d="M-1.14 -2.38 C7.6 -2.86, 43.23 -3.41, 52.86 -2.55" stroke="#1e1e1e" stroke-width="1.5" fill="none" stroke-dasharray="1.5 7"></path></g></g><mask></mask><g stroke-linecap="round"><g transform="translate(368.80771619525103 201.3140634666952) rotate(0 10.365706488186788 0.14929641067737975)"><path d="M-0.8 -0.12 C2.45 -0.09, 16.32 -0.34, 20.11 -0.09" stroke="#1e1e1e" stroke-width="1.5" fill="none" stroke-dasharray="1.5 7"></path></g></g><mask></mask><g transform="translate(10 211.15983482251613) rotate(0 56.39396667480469 45)"><text x="0" y="31.536" font-family="Virgil, Segoe UI Emoji" font-size="36px" fill="#1e1e1e" text-anchor="start" style="white-space: pre;" direction="ltr" dominant-baseline="alphabetic">effect</text><text x="0" y="76.536" font-family="Virgil, Segoe UI Emoji" font-size="36px" fill="#1e1e1e" text-anchor="start" style="white-space: pre;" direction="ltr" dominant-baseline="alphabetic">size</text></g><g transform="translate(458.6161148160936 43.3259167754768) rotate(0 65.62796783447266 45)"><text x="0" y="31.536" font-family="Virgil, Segoe UI Emoji" font-size="36px" fill="#1e1e1e" text-anchor="start" style="white-space: pre;" direction="ltr" dominant-baseline="alphabetic">sample </text><text x="0" y="76.536" font-family="Virgil, Segoe UI Emoji" font-size="36px" fill="#1e1e1e" text-anchor="start" style="white-space: pre;" direction="ltr" dominant-baseline="alphabetic">means</text></g></svg>